<svg width="30" height="30" viewBox="0 0 30 30" fill="none" xmlns="http://www.w3.org/2000/svg">
<path d="M15.4158 18.1818C18.3521 18.1818 20.7409 15.7931 20.7409 12.8538L20.7242 6.30836C20.7242 3.38132 18.3429 1 15.4158 1C12.4889 1 10.1077 3.38132 10.1077 6.30526L10.0911 12.8569C10.0911 15.7931 12.4797 18.1818 15.4158 18.1818ZM12.5622 6.30836C12.5622 4.73475 13.8423 3.45455 15.4158 3.45455C16.9894 3.45455 18.2697 4.73476 18.2697 6.31156L18.2864 12.857C18.2864 14.4397 16.9986 15.7273 15.4158 15.7273C13.8332 15.7273 12.5456 14.4397 12.5456 12.86L12.5622 6.30836Z" fill="currentColor"/>
<path d="M24.8319 13.6785C24.8319 13.0008 24.2824 12.4513 23.6047 12.4513C22.9269 12.4513 22.3774 13.0008 22.3774 13.6785C22.3774 17.5021 19.2783 20.6146 15.46 20.6387C15.4452 20.6382 15.4308 20.6364 15.4158 20.6364C15.4008 20.6364 15.3864 20.6382 15.3715 20.6387C11.5535 20.6147 8.45455 17.5022 8.45455 13.6785C8.45455 13.0008 7.90505 12.4513 7.22727 12.4513C6.54949 12.4513 6 13.0008 6 13.6785C6 18.4545 9.57447 22.4111 14.1885 23.0143V25.5455H11.4887C10.8109 25.5455 10.2614 26.0949 10.2614 26.7727C10.2614 27.4505 10.8109 28 11.4887 28H19.3433C20.0211 28 20.5706 27.4505 20.5706 26.7727C20.5706 26.0949 20.0211 25.5455 19.3433 25.5455H16.6431V23.0143C21.2574 22.411 24.8319 18.4544 24.8319 13.6785Z" fill="currentColor"/>
</svg>
