<svg width="30" height="30" viewBox="0 0 30 30" fill="none" xmlns="http://www.w3.org/2000/svg">
<path d="M29.2407 29.9846C29.6605 29.9846 30 29.6451 30 29.2253V7.01544C30 6.79321 29.9012 6.58334 29.7346 6.44136L22.4074 0.175929C22.3951 0.163584 22.3827 0.157411 22.3704 0.151238C22.3519 0.138892 22.3395 0.126547 22.321 0.114201C22.2963 0.101855 22.2778 0.0895097 22.2531 0.077164C22.2346 0.0709911 22.216 0.0586455 22.1975 0.0524726C22.1728 0.0401269 22.142 0.0339541 22.1173 0.0277813C22.0988 0.0216084 22.0802 0.0154356 22.0617 0.0154356C22.0123 0.00926274 21.9691 0.0030899 21.9198 0.0030899H0.759259C0.339506 0.0030899 0 0.342596 0 0.762349V29.2377C0 29.6574 0.339506 29.9969 0.759259 29.9969H29.2407V29.9846ZM23.7346 28.4722H6.26543V17.108C6.26543 16.8796 6.45062 16.7006 6.67284 16.7006H23.3272C23.5556 16.7006 23.7346 16.8858 23.7346 17.108V28.4722ZM9.98765 1.50926H21.1543V9.39815C21.1543 9.44753 21.1173 9.48457 21.0679 9.48457H10.0802C10.0309 9.48457 9.99383 9.44136 9.99383 9.39815V1.50926H9.98765ZM1.51852 1.50926H8.48148V9.39815C8.48148 10.2809 9.19753 10.9969 10.0802 10.9969H21.0679C21.9506 10.9969 22.6667 10.2809 22.6667 9.39815V2.39198L28.4815 7.36729V28.4722H25.2469V17.108C25.2469 16.0463 24.3827 15.1883 23.3272 15.1883H6.67284C5.61111 15.1883 4.75309 16.0525 4.75309 17.108V28.4784H1.51852V1.50926Z" fill="currentColor"/>
<path d="M14.0371 4.79321H17.3581V6.80556C17.3581 7.22531 17.6976 7.56482 18.1173 7.56482C18.5371 7.56482 18.8766 7.22531 18.8766 6.80556V4.04013C18.8766 3.62037 18.5371 3.28087 18.1173 3.28087H14.0371C13.6173 3.28087 13.2778 3.62037 13.2778 4.04013C13.2778 4.45988 13.6235 4.79321 14.0371 4.79321Z" fill="currentColor"/>
<path d="M18.7963 19.929H11.2037C10.784 19.929 10.4445 20.2685 10.4445 20.6883C10.4445 21.108 10.784 21.4475 11.2037 21.4475H18.7963C19.2161 21.4475 19.5556 21.108 19.5556 20.6883C19.5556 20.2685 19.2161 19.929 18.7963 19.929Z" fill="currentColor"/>
<path d="M18.7963 23.9352H11.2037C10.784 23.9352 10.4445 24.2747 10.4445 24.6945C10.4445 25.1142 10.784 25.4537 11.2037 25.4537H18.7963C19.2161 25.4537 19.5556 25.1142 19.5556 24.6945C19.5556 24.2747 19.2161 23.9352 18.7963 23.9352Z" fill="currentColor"/>
</svg>
