<svg width="30" height="30" viewBox="0 0 30 30" fill="none" xmlns="http://www.w3.org/2000/svg">
<path d="M5.62497 5.89285C3.70183 5.89285 2.14282 7.45187 2.14282 9.375V20.625C2.14282 22.5481 3.70183 24.1071 5.62497 24.1071H16.8774C18.8005 24.1071 20.3596 22.5481 20.3596 20.625V18.9329L25.225 22.2669C26.1138 22.8759 27.3213 22.2394 27.3213 21.162V8.83759C27.3213 7.76033 26.1141 7.1239 25.2253 7.73258L20.3596 11.0649V9.375C20.3596 7.45187 18.8005 5.89285 16.8774 5.89285H5.62497ZM20.3596 16.9847V13.0127L25.7141 9.34567V20.6538L20.3596 16.9847ZM18.7524 9.375V20.625C18.7524 21.6605 17.9129 22.5 16.8774 22.5H5.62497C4.58943 22.5 3.74997 21.6605 3.74997 20.625V9.375C3.74997 8.33946 4.58943 7.5 5.62497 7.5H16.8774C17.913 7.5 18.7524 8.33946 18.7524 9.375Z" fill="currentColor"/>
</svg>
