<svg width="30" height="30" viewBox="0 0 30 30" fill="none" xmlns="http://www.w3.org/2000/svg">
<path d="M14.7145 4.67936C17.6413 1.74988 22.3901 1.74988 25.319 4.67881C28.1728 7.53264 28.246 12.1141 25.5385 15.0566L25.3033 15.3033L14.3033 26.301L14.2576 26.3388C12.431 27.9848 9.61353 27.9289 7.85431 26.1697C6.20554 24.5209 6.0529 21.9425 7.39638 20.1217C7.42556 20.065 7.46087 20.0103 7.50238 19.9588L7.56932 19.8843L7.67796 19.7746L7.85431 19.5898L7.85796 19.5934L17.1526 10.2755C17.485 9.94219 18.0058 9.91124 18.3732 10.1831L18.4785 10.2737C18.8117 10.6061 18.8427 11.1269 18.5709 11.4943L18.4802 11.5995L8.98695 21.1159C8.0899 22.2104 8.15225 23.8282 9.174 24.85C10.2103 25.8863 11.8599 25.9357 12.9546 24.998L23.9955 13.9599C26.1899 11.7629 26.1899 8.20133 23.9932 6.00463C21.8651 3.87658 18.4562 3.81008 16.2481 5.80513L16.0382 6.00463L16.0225 6.02252L4.10212 17.9429C3.736 18.309 3.14241 18.309 2.7763 17.9429C2.44346 17.6101 2.41321 17.0893 2.68552 16.7222L2.7763 16.6171L14.7124 4.67881L14.7145 4.67936Z" fill="currentColor"/>
</svg>
