<svg width="18" height="19" viewBox="0 0 18 19" fill="none" xmlns="http://www.w3.org/2000/svg">
<path d="M9 5.75V2.75H1.5V16.25H16.5V5.75H9ZM4.5 14.75H3V13.25H4.5V14.75ZM4.5 11.75H3V10.25H4.5V11.75ZM4.5 8.75H3V7.25H4.5V8.75ZM4.5 5.75H3V4.25H4.5V5.75ZM7.5 14.75H6V13.25H7.5V14.75ZM7.5 11.75H6V10.25H7.5V11.75ZM7.5 8.75H6V7.25H7.5V8.75ZM7.5 5.75H6V4.25H7.5V5.75ZM15 14.75H9V13.25H10.5V11.75H9V10.25H10.5V8.75H9V7.25H15V14.75ZM13.5 8.75H12V10.25H13.5V8.75ZM13.5 11.75H12V13.25H13.5V11.75Z" fill="currentColor"/>
</svg>
