<svg width="18" height="19" viewBox="0 0 18 19" fill="none" xmlns="http://www.w3.org/2000/svg">
<path d="M10.6875 2.195L10.6275 2.165L10.62 2.18C10.095 2.0675 9.555 2 9 2C4.86 2 1.5 5.36 1.5 9.5C1.5 13.64 4.86 17 9 17C13.14 17 16.5 13.64 16.5 9.5C16.5 5.9375 14.0175 2.96 10.6875 2.195ZM14.5575 7.25H8.565L10.5975 3.725C12.3975 4.22 13.86 5.54 14.5575 7.25ZM9.825 3.56L6.84 8.75L4.8 5.225C5.88 4.16 7.365 3.5 9 3.5C9.2775 3.5 9.555 3.5225 9.825 3.56ZM4.275 5.8175L6.405 9.5L7.2675 11H3.195C3.075 10.52 3 10.0175 3 9.5C3 8.1125 3.48 6.8375 4.275 5.8175ZM3.4425 11.75H9.4275L7.395 15.275C5.595 14.7725 4.14 13.46 3.4425 11.75ZM8.175 15.4325L11.1675 10.25L13.2075 13.775C12.12 14.84 10.635 15.5 9 15.5C8.715 15.5 8.445 15.47 8.175 15.4325ZM13.725 13.1825L10.725 8H14.7975C14.925 8.48 15 8.9825 15 9.5C15 10.8875 14.52 12.1625 13.725 13.1825Z" fill="currentColor"/>
</svg>
