<svg width="30" height="30" viewBox="0 0 30 30" fill="none" xmlns="http://www.w3.org/2000/svg">
<path d="M3.77681 3.98316L3.87445 3.87441C4.3626 3.38626 5.13384 3.35371 5.65974 3.77678L5.76848 3.87441L15 13.1068L24.2316 3.87441C24.7546 3.35139 25.6026 3.35139 26.1256 3.87441C26.6487 4.39743 26.6487 5.24542 26.1256 5.76845L16.8933 15L26.1256 24.2316C26.6138 24.7197 26.6463 25.4909 26.2233 26.0168L26.1256 26.1256C25.6375 26.6137 24.8662 26.6463 24.3403 26.2232L24.2316 26.1256L15 16.8932L5.76848 26.1256C5.24546 26.6486 4.39747 26.6486 3.87445 26.1256C3.35142 25.6026 3.35142 24.7546 3.87445 24.2316L13.1068 15L3.87445 5.76845C3.38629 5.28029 3.35375 4.50906 3.77681 3.98316L3.87445 3.87441L3.77681 3.98316Z" fill="currentColor"/>
</svg>
