<svg width="18" height="19" viewBox="0 0 18 19" fill="none" xmlns="http://www.w3.org/2000/svg">
<path d="M7.875 8.00964C8.49632 8.00964 9 7.50596 9 6.88464C9 6.26332 8.49632 5.75964 7.875 5.75964C7.25368 5.75964 6.75 6.26332 6.75 6.88464C6.75 7.50596 7.25368 8.00964 7.875 8.00964Z" fill="currentColor"/>
<path d="M6.375 11.7596C6.99632 11.7596 7.5 11.256 7.5 10.6346C7.5 10.0133 6.99632 9.50964 6.375 9.50964C5.75368 9.50964 5.25 10.0133 5.25 10.6346C5.25 11.256 5.75368 11.7596 6.375 11.7596Z" fill="currentColor"/>
<path d="M11.25 12.5096C11.6642 12.5096 12 12.1739 12 11.7596C12 11.3454 11.6642 11.0096 11.25 11.0096C10.8358 11.0096 10.5 11.3454 10.5 11.7596C10.5 12.1739 10.8358 12.5096 11.25 12.5096Z" fill="currentColor"/>
<path d="M16.4625 8.75214C15.12 8.72964 13.6875 7.28964 14.4525 5.58714C12.225 6.33714 10.1175 4.39464 10.56 2.16714C5.3325 1.06464 1.5 5.31714 1.5 9.50964C1.5 13.6496 4.86 17.0096 9 17.0096C13.4175 17.0096 16.905 13.1996 16.4625 8.75214ZM9 15.5096C5.6925 15.5096 3 12.8171 3 9.50964C3 7.02714 5.0475 3.37464 9.06 3.49464C9.375 5.39964 10.89 6.91464 12.8025 7.19964C12.855 7.46964 13.1925 9.11214 14.9925 9.92214C14.775 13.1546 12.045 15.5096 9 15.5096Z" fill="currentColor"/>
</svg>
