<svg width="30" height="30" viewBox="0 0 30 30" fill="none" xmlns="http://www.w3.org/2000/svg">
<path d="M15 4.53125C16.9386 4.53125 18.5187 6.06626 18.5912 7.98715L18.5938 8.125H23.125C23.5565 8.125 23.9062 8.47478 23.9062 8.90625C23.9062 9.31076 23.5988 9.64346 23.2049 9.68347L23.125 9.6875H22.4431L21.3786 23.7937C21.2741 25.1792 20.1194 26.25 18.7299 26.25H11.2701C9.88061 26.25 8.72592 25.1792 8.62136 23.7937L7.55625 9.6875H6.875C6.47049 9.6875 6.13779 9.38008 6.09778 8.98613L6.09375 8.90625C6.09375 8.50174 6.40117 8.16904 6.79512 8.12903L6.875 8.125H11.4062C11.4062 6.14023 13.0152 4.53125 15 4.53125ZM20.8763 9.6875H9.12368L10.1794 23.6761C10.2225 24.2466 10.6979 24.6875 11.2701 24.6875H18.7299C19.3021 24.6875 19.7775 24.2466 19.8206 23.6761L20.8763 9.6875ZM17.0312 12.9688C17.4358 12.9688 17.7685 13.2762 17.8085 13.6701L17.8125 13.75V20.625C17.8125 21.0565 17.4627 21.4062 17.0312 21.4062C16.6267 21.4062 16.294 21.0988 16.254 20.7049L16.25 20.625V13.75C16.25 13.3185 16.5998 12.9688 17.0312 12.9688ZM12.9688 12.9688C13.3733 12.9688 13.706 13.2762 13.746 13.6701L13.75 13.75V20.625C13.75 21.0565 13.4002 21.4062 12.9688 21.4062C12.5642 21.4062 12.2315 21.0988 12.1915 20.7049L12.1875 20.625V13.75C12.1875 13.3185 12.5373 12.9688 12.9688 12.9688ZM15 6.09375C13.9169 6.09375 13.0317 6.94153 12.972 8.00974L12.9688 8.125H17.0312C17.0312 7.00317 16.1218 6.09375 15 6.09375Z" fill="currentColor"/>
</svg>
