<svg width="30" height="30" viewBox="0 0 30 30" fill="none" xmlns="http://www.w3.org/2000/svg">
<path d="M26.288 3.7121C28.0348 5.45893 28.0348 8.2911 26.288 10.0379L11.3276 24.9983C10.9815 25.3444 10.551 25.5942 10.0788 25.723L3.68423 27.467C2.98439 27.6578 2.34223 27.0157 2.53309 26.3158L4.27708 19.9212C4.40586 19.449 4.65564 19.0186 5.00174 18.6725L19.9621 3.7121C21.709 1.96527 24.5411 1.96527 26.288 3.7121ZM18.7503 7.57573L6.32756 19.9983C6.2122 20.1137 6.12894 20.2572 6.08601 20.4146L4.7737 25.2264L9.5855 23.9141C9.7429 23.8711 9.88637 23.7879 10.0017 23.6725L22.424 11.2495L18.7503 7.57573ZM21.288 5.03792L20.0753 6.24948L23.749 9.92448L24.9621 8.7121C25.9767 7.6975 25.9767 6.05252 24.9621 5.03792C23.9475 4.02333 22.3026 4.02333 21.288 5.03792Z" fill="currentColor"/>
</svg>
