<svg width="18" height="19" viewBox="0 0 18 19" fill="none" xmlns="http://www.w3.org/2000/svg">
<path d="M8.77805 9.80901C8.37507 9.83588 7.99895 9.67468 7.59596 9.54036C5.47357 8.84185 3.35119 8.14334 1.25566 7.41797C1.12134 7.36424 1.01387 7.3105 0.90641 7.22991C0.772082 7.12245 0.772082 6.98812 0.90641 6.88065C1.01387 6.80006 1.1482 6.71946 1.28253 6.69259C3.53925 6.02095 5.79596 5.34931 8.05268 4.6508C8.56313 4.48961 9.07357 4.48961 9.61089 4.6508C11.8407 5.32244 14.0975 5.99409 16.3273 6.66573C16.4616 6.71946 16.596 6.77319 16.7303 6.85379C16.8915 6.96125 16.8915 7.12245 16.7303 7.22991C16.6228 7.3105 16.5154 7.36424 16.4079 7.3911C14.1781 8.14334 11.9213 8.89558 9.66462 9.62095C9.3691 9.75528 9.10044 9.80901 8.77805 9.80901Z" fill="currentColor"/>
<path d="M4.31802 9.91643C3.99564 9.83583 3.91504 10.0508 3.91504 10.2119C3.91504 11.0716 3.91504 11.9045 3.91504 12.7642C3.91504 13.0597 4.0225 13.2478 4.21056 13.4358C4.29116 13.5164 4.37176 13.5702 4.45235 13.6239C4.98967 14 5.60758 14.2418 6.25235 14.403C7.51504 14.7522 8.80459 14.806 10.0941 14.6448C10.927 14.5373 11.7598 14.3224 12.5389 13.9731C12.8882 13.8119 13.2106 13.6239 13.4524 13.3552C13.6135 13.194 13.6941 13.0328 13.6673 12.7911C13.6941 11.9851 13.6941 11.1522 13.6941 10.3194C13.6941 9.86269 13.3718 9.91643 13.2374 9.94329C12.0553 10.3463 10.8464 10.7224 9.66429 11.1254C9.07325 11.3134 8.50907 11.3134 7.91802 11.1254L4.31802 9.91643Z" fill="currentColor"/>
<path d="M15.4942 9.13742C15.3868 9.16429 15.3599 9.21802 15.3599 9.32548C15.3599 10.0777 15.3599 10.83 15.3599 11.5822C15.3599 11.6628 15.333 11.7434 15.3062 11.824C15.145 12.227 14.9569 12.63 14.8226 13.0329C14.6883 13.4091 14.7689 13.7852 15.0375 14.0807C15.1181 14.1882 15.2256 14.2688 15.333 14.3494C15.4405 14.43 15.6017 14.4837 15.736 14.5106C15.9778 14.5374 16.1659 14.4031 16.3271 14.2688C16.4077 14.1882 16.4883 14.1076 16.5689 14.027C16.7569 13.7852 16.8107 13.4359 16.7301 13.1135C16.6226 12.6568 16.4345 12.2538 16.2196 11.8509C16.1659 11.7703 16.139 11.6628 16.139 11.5822C16.139 10.7494 16.139 9.9434 16.139 9.11056C16.139 8.94937 16.0047 8.97623 15.951 9.0031L15.4942 9.13742Z" fill="currentColor"/>
</svg>
