<svg width="18" height="19" viewBox="0 0 18 19" fill="none" xmlns="http://www.w3.org/2000/svg">
<path d="M8.9925 2C4.8525 2 1.5 5.36 1.5 9.5C1.5 13.64 4.8525 17 8.9925 17C13.14 17 16.5 13.64 16.5 9.5C16.5 5.36 13.14 2 8.9925 2ZM9 15.5C5.685 15.5 3 12.815 3 9.5C3 6.185 5.685 3.5 9 3.5C12.315 3.5 15 6.185 15 9.5C15 12.815 12.315 15.5 9 15.5ZM11.625 8.75C12.2475 8.75 12.75 8.2475 12.75 7.625C12.75 7.0025 12.2475 6.5 11.625 6.5C11.0025 6.5 10.5 7.0025 10.5 7.625C10.5 8.2475 11.0025 8.75 11.625 8.75ZM6.375 8.75C6.9975 8.75 7.5 8.2475 7.5 7.625C7.5 7.0025 6.9975 6.5 6.375 6.5C5.7525 6.5 5.25 7.0025 5.25 7.625C5.25 8.2475 5.7525 8.75 6.375 8.75ZM9 13.625C10.7475 13.625 12.2325 12.53 12.8325 11H5.1675C5.7675 12.53 7.2525 13.625 9 13.625Z" fill="currentColor"/>
</svg>
