<svg width="18" height="19" viewBox="0 0 18 19" fill="none" xmlns="http://www.w3.org/2000/svg">
<path d="M14.2875 13.175C14.5875 12.65 14.8125 12.05 14.8125 11.375C14.8125 9.5 13.3125 8 11.4375 8C9.5625 8 8.0625 9.5 8.0625 11.375C8.0625 13.25 9.5625 14.75 11.4375 14.75C12.1125 14.75 12.7125 14.525 13.2375 14.225L15.6375 16.625L16.6875 15.575L14.2875 13.175ZM11.4375 13.25C10.3875 13.25 9.5625 12.425 9.5625 11.375C9.5625 10.325 10.3875 9.5 11.4375 9.5C12.4875 9.5 13.3125 10.325 13.3125 11.375C13.3125 12.425 12.4875 13.25 11.4375 13.25ZM8.8125 15.5V17C4.6725 17 1.3125 13.64 1.3125 9.5C1.3125 5.36 4.6725 2 8.8125 2C12.4425 2 15.465 4.58 16.1625 8H14.61C14.13 6.155 12.81 4.6475 11.0625 3.9425V4.25C11.0625 5.075 10.3875 5.75 9.5625 5.75H8.0625V7.25C8.0625 7.6625 7.725 8 7.3125 8H5.8125V9.5H7.3125V11.75H6.5625L2.97 8.1575C2.8725 8.5925 2.8125 9.035 2.8125 9.5C2.8125 12.8075 5.505 15.5 8.8125 15.5Z" fill="currentColor"/>
</svg>
