<svg width="30" height="30" viewBox="0 0 30 30" fill="none" xmlns="http://www.w3.org/2000/svg">
<path d="M4.23236 7.08359C3.28693 6.02694 2.81422 5.49861 2.7964 5.0496C2.78091 4.65955 2.94852 4.28465 3.24953 4.03611C3.59605 3.75 4.30498 3.75 5.72285 3.75H24.2765C25.6944 3.75 26.4034 3.75 26.7499 4.03611C27.0509 4.28465 27.2185 4.65955 27.203 5.0496C27.1851 5.49861 26.7124 6.02694 25.767 7.08359L18.6342 15.0555C18.4457 15.2661 18.3515 15.3715 18.2844 15.4914C18.2247 15.5976 18.181 15.7121 18.1545 15.831C18.1246 15.9651 18.1246 16.1065 18.1246 16.3891V23.073C18.1246 23.3174 18.1246 23.4396 18.0852 23.5454C18.0504 23.6387 17.9937 23.7224 17.92 23.7894C17.8365 23.8652 17.723 23.9106 17.4961 24.0015L13.2461 25.7015C12.7866 25.8852 12.5569 25.9771 12.3725 25.9387C12.2113 25.9052 12.0697 25.8095 11.9787 25.6721C11.8747 25.5153 11.8747 25.2677 11.8747 24.773V16.3891C11.8747 16.1065 11.8747 15.9651 11.8448 15.831C11.8184 15.7121 11.7746 15.5976 11.715 15.4914C11.6478 15.3715 11.5536 15.2661 11.3652 15.0555L4.23236 7.08359Z" stroke="currentColor" stroke-width="2" stroke-linecap="round" stroke-linejoin="round"/>
</svg>
