<svg width="18" height="19" viewBox="0 0 18 19" fill="none" xmlns="http://www.w3.org/2000/svg">
<path d="M16.1846 12.5675L15.3671 6.8225C15.1571 5.345 13.8896 4.25 12.3971 4.25H5.60212C4.10962 4.25 2.84212 5.345 2.63212 6.8225L1.81462 12.5675C1.64962 13.7225 2.54212 14.75 3.70462 14.75C4.21462 14.75 4.69462 14.5475 5.05462 14.1875L6.74962 12.5H11.2496L12.9371 14.1875C13.2971 14.5475 13.7846 14.75 14.2871 14.75C15.4571 14.75 16.3496 13.7225 16.1846 12.5675ZM14.6096 13.1075C14.5496 13.175 14.4521 13.25 14.2946 13.25C14.1821 13.25 14.0771 13.205 14.0021 13.13L11.8721 11H6.12712L3.99712 13.13C3.92212 13.205 3.81712 13.25 3.70462 13.25C3.54712 13.25 3.44962 13.175 3.38962 13.1075C3.32962 13.04 3.26962 12.935 3.29212 12.7775L4.10962 7.0325C4.22212 6.305 4.85962 5.75 5.60212 5.75H12.3971C13.1396 5.75 13.7771 6.305 13.8821 7.04L14.6996 12.785C14.7221 12.935 14.6621 13.04 14.6096 13.1075Z" fill="currentColor"/>
<path d="M6.74962 6.5H5.99962V8H4.49962V8.75H5.99962V10.25H6.74962V8.75H8.24962V8H6.74962V6.5Z" fill="currentColor"/>
<path d="M12.7496 10.25C13.1638 10.25 13.4996 9.91421 13.4996 9.5C13.4996 9.08579 13.1638 8.75 12.7496 8.75C12.3354 8.75 11.9996 9.08579 11.9996 9.5C11.9996 9.91421 12.3354 10.25 12.7496 10.25Z" fill="currentColor"/>
<path d="M11.2496 8C11.6638 8 11.9996 7.66421 11.9996 7.25C11.9996 6.83579 11.6638 6.5 11.2496 6.5C10.8354 6.5 10.4996 6.83579 10.4996 7.25C10.4996 7.66421 10.8354 8 11.2496 8Z" fill="currentColor"/>
</svg>
