<svg width="30" height="30" viewBox="0 0 30 30" fill="none" xmlns="http://www.w3.org/2000/svg">
<g clip-path="url(#clip0_10_109)">
<path d="M29.7138 16.3623L22.9885 9.63755V3.03086C22.9885 2.49121 22.5512 2.05371 22.0114 2.05371C21.4716 2.05371 21.0342 2.49121 21.0342 3.03086V7.68325L15.6904 2.33995C15.3089 1.95834 14.6902 1.95847 14.3086 2.33995L0.286268 16.3623C-0.0953412 16.7439 -0.0953412 17.3626 0.286268 17.7441C0.668007 18.1257 1.28661 18.1257 1.66835 17.7441L4.10731 15.3051V26.969C4.10731 27.5087 4.54468 27.9462 5.08445 27.9462H24.916C25.4558 27.9462 25.8931 27.5087 25.8931 26.969V15.3053L28.3322 17.7441C28.523 17.9348 28.7731 18.0302 29.0231 18.0302C29.2732 18.0302 29.5233 17.9348 29.7142 17.744C30.0954 17.3625 30.0954 16.7439 29.7138 16.3623ZM23.9387 25.992H6.06147V13.351L14.9996 4.41281L23.9387 13.3512V25.992Z" fill="currentColor"/>
</g>
<defs>
<clipPath id="clip0_10_109">
<rect width="30" height="30" fill="white"/>
</clipPath>
</defs>
</svg>
