<svg width="18" height="19" viewBox="0 0 18 19" fill="none" xmlns="http://www.w3.org/2000/svg">
<path d="M9 6.5C9.82843 6.5 10.5 5.82843 10.5 5C10.5 4.17157 9.82843 3.5 9 3.5C8.17157 3.5 7.5 4.17157 7.5 5C7.5 5.82843 8.17157 6.5 9 6.5Z" fill="currentColor"/>
<path d="M15.75 12.5V11C14.07 11 12.63 10.28 11.55 8.99L10.545 7.79C10.26 7.445 9.84 7.25 9.3975 7.25H8.61C8.1675 7.25 7.7475 7.445 7.4625 7.79L6.4575 8.99C5.37 10.28 3.93 11 2.25 11V12.5C4.3275 12.5 6.1425 11.6225 7.5 10.0625V11.75L4.59 12.9125C4.0875 13.115 3.75 13.61 3.75 14.1575C3.75 14.9 4.35 15.5 5.0925 15.5H6.75V15.125C6.75 14.09 7.59 13.25 8.625 13.25H10.875C11.085 13.25 11.25 13.415 11.25 13.625C11.25 13.835 11.085 14 10.875 14H8.625C8.0025 14 7.5 14.5025 7.5 15.125V15.5H12.9075C13.65 15.5 14.25 14.9 14.25 14.1575C14.25 13.61 13.9125 13.115 13.41 12.9125L10.5 11.75V10.0625C11.8575 11.6225 13.6725 12.5 15.75 12.5Z" fill="currentColor"/>
</svg>
