<svg width="155" height="50" viewBox="0 0 155 50" fill="none" xmlns="http://www.w3.org/2000/svg">
<rect width="50" height="50" rx="15" fill="#47ED76"/>
<path d="M26.5 27.625C26.125 28 25.75 28.5625 25.4687 29.0312C23.7812 27.7187 22.2812 26.125 20.9687 24.5312C21.5312 24.25 22 23.875 22.375 23.5C24.25 21.625 23.5937 19.1875 21.7187 17.3125C19.8437 15.4375 17.5 14.6875 15.5312 16.6562C13.5625 18.625 13.375 22 14.875 24.1562C17.5937 28.2812 21.7187 32.4062 25.8437 35.125C28.0937 36.625 31.4687 36.3437 33.3437 34.4687C35.2187 32.5937 34.5625 30.1562 32.6875 28.2812C30.8125 26.4062 28.375 25.6562 26.5 27.625Z" stroke="#2F37ED" stroke-width="2" stroke-miterlimit="10" stroke-linejoin="round"/>
<path d="M36.1563 23.0313C36.1563 17.875 32.0313 13.75 26.875 13.75" stroke="#2F37ED" stroke-width="2" stroke-miterlimit="10" stroke-linecap="round" stroke-linejoin="round"/>
<path d="M31.5625 22.8438C31.5625 20.4063 29.5 18.4375 26.9688 18.4375" stroke="#2F37ED" stroke-width="2" stroke-miterlimit="10" stroke-linecap="round" stroke-linejoin="round"/>
<path d="M80.1562 22.8867V25.6289H71.25V22.8867H80.1562ZM72.293 15.9375V33H68.7773V15.9375H72.293ZM82.6641 15.9375V33H79.1602V15.9375H82.6641ZM84.9727 26.7891V26.543C84.9727 25.6133 85.1055 24.7578 85.3711 23.9766C85.6367 23.1875 86.0234 22.5039 86.5312 21.9258C87.0391 21.3477 87.6641 20.8984 88.4062 20.5781C89.1484 20.25 90 20.0859 90.9609 20.0859C91.9219 20.0859 92.7773 20.25 93.5273 20.5781C94.2773 20.8984 94.9062 21.3477 95.4141 21.9258C95.9297 22.5039 96.3203 23.1875 96.5859 23.9766C96.8516 24.7578 96.9844 25.6133 96.9844 26.543V26.7891C96.9844 27.7109 96.8516 28.5664 96.5859 29.3555C96.3203 30.1367 95.9297 30.8203 95.4141 31.4062C94.9062 31.9844 94.2812 32.4336 93.5391 32.7539C92.7969 33.0742 91.9453 33.2344 90.9844 33.2344C90.0234 33.2344 89.168 33.0742 88.418 32.7539C87.6758 32.4336 87.0469 31.9844 86.5312 31.4062C86.0234 30.8203 85.6367 30.1367 85.3711 29.3555C85.1055 28.5664 84.9727 27.7109 84.9727 26.7891ZM88.3477 26.543V26.7891C88.3477 27.3203 88.3945 27.8164 88.4883 28.2773C88.582 28.7383 88.7305 29.1445 88.9336 29.4961C89.1445 29.8398 89.418 30.1094 89.7539 30.3047C90.0898 30.5 90.5 30.5977 90.9844 30.5977C91.4531 30.5977 91.8555 30.5 92.1914 30.3047C92.5273 30.1094 92.7969 29.8398 93 29.4961C93.2031 29.1445 93.3516 28.7383 93.4453 28.2773C93.5469 27.8164 93.5977 27.3203 93.5977 26.7891V26.543C93.5977 26.0273 93.5469 25.543 93.4453 25.0898C93.3516 24.6289 93.1992 24.2227 92.9883 23.8711C92.7852 23.5117 92.5156 23.2305 92.1797 23.0273C91.8438 22.8242 91.4375 22.7227 90.9609 22.7227C90.4844 22.7227 90.0781 22.8242 89.7422 23.0273C89.4141 23.2305 89.1445 23.5117 88.9336 23.8711C88.7305 24.2227 88.582 24.6289 88.4883 25.0898C88.3945 25.543 88.3477 26.0273 88.3477 26.543ZM102.434 22.7578V37.875H99.0586V20.3203H102.188L102.434 22.7578ZM110.461 26.5195V26.7656C110.461 27.6875 110.352 28.543 110.133 29.332C109.922 30.1211 109.609 30.8086 109.195 31.3945C108.781 31.9727 108.266 32.4258 107.648 32.7539C107.039 33.0742 106.336 33.2344 105.539 33.2344C104.766 33.2344 104.094 33.0781 103.523 32.7656C102.953 32.4531 102.473 32.0156 102.082 31.4531C101.699 30.8828 101.391 30.2227 101.156 29.4727C100.922 28.7227 100.742 27.918 100.617 27.0586V26.4141C100.742 25.4922 100.922 24.6484 101.156 23.8828C101.391 23.1094 101.699 22.4414 102.082 21.8789C102.473 21.3086 102.949 20.8672 103.512 20.5547C104.082 20.2422 104.75 20.0859 105.516 20.0859C106.32 20.0859 107.027 20.2383 107.637 20.543C108.254 20.8477 108.77 21.2852 109.184 21.8555C109.605 22.4258 109.922 23.1055 110.133 23.8945C110.352 24.6836 110.461 25.5586 110.461 26.5195ZM107.074 26.7656V26.5195C107.074 25.9805 107.027 25.4844 106.934 25.0312C106.848 24.5703 106.707 24.168 106.512 23.8242C106.324 23.4805 106.074 23.2148 105.762 23.0273C105.457 22.832 105.086 22.7344 104.648 22.7344C104.188 22.7344 103.793 22.8086 103.465 22.957C103.145 23.1055 102.883 23.3203 102.68 23.6016C102.477 23.8828 102.324 24.2188 102.223 24.6094C102.121 25 102.059 25.4414 102.035 25.9336V27.5625C102.074 28.1406 102.184 28.6602 102.363 29.1211C102.543 29.5742 102.82 29.9336 103.195 30.1992C103.57 30.4648 104.062 30.5977 104.672 30.5977C105.117 30.5977 105.492 30.5 105.797 30.3047C106.102 30.1016 106.348 29.8242 106.535 29.4727C106.73 29.1211 106.867 28.7148 106.945 28.2539C107.031 27.793 107.074 27.2969 107.074 26.7656ZM115.934 22.7578V37.875H112.559V20.3203H115.688L115.934 22.7578ZM123.961 26.5195V26.7656C123.961 27.6875 123.852 28.543 123.633 29.332C123.422 30.1211 123.109 30.8086 122.695 31.3945C122.281 31.9727 121.766 32.4258 121.148 32.7539C120.539 33.0742 119.836 33.2344 119.039 33.2344C118.266 33.2344 117.594 33.0781 117.023 32.7656C116.453 32.4531 115.973 32.0156 115.582 31.4531C115.199 30.8828 114.891 30.2227 114.656 29.4727C114.422 28.7227 114.242 27.918 114.117 27.0586V26.4141C114.242 25.4922 114.422 24.6484 114.656 23.8828C114.891 23.1094 115.199 22.4414 115.582 21.8789C115.973 21.3086 116.449 20.8672 117.012 20.5547C117.582 20.2422 118.25 20.0859 119.016 20.0859C119.82 20.0859 120.527 20.2383 121.137 20.543C121.754 20.8477 122.27 21.2852 122.684 21.8555C123.105 22.4258 123.422 23.1055 123.633 23.8945C123.852 24.6836 123.961 25.5586 123.961 26.5195ZM120.574 26.7656V26.5195C120.574 25.9805 120.527 25.4844 120.434 25.0312C120.348 24.5703 120.207 24.168 120.012 23.8242C119.824 23.4805 119.574 23.2148 119.262 23.0273C118.957 22.832 118.586 22.7344 118.148 22.7344C117.688 22.7344 117.293 22.8086 116.965 22.957C116.645 23.1055 116.383 23.3203 116.18 23.6016C115.977 23.8828 115.824 24.2188 115.723 24.6094C115.621 25 115.559 25.4414 115.535 25.9336V27.5625C115.574 28.1406 115.684 28.6602 115.863 29.1211C116.043 29.5742 116.32 29.9336 116.695 30.1992C117.07 30.4648 117.562 30.5977 118.172 30.5977C118.617 30.5977 118.992 30.5 119.297 30.3047C119.602 30.1016 119.848 29.8242 120.035 29.4727C120.23 29.1211 120.367 28.7148 120.445 28.2539C120.531 27.793 120.574 27.2969 120.574 26.7656ZM140.285 24.0703V24.8789C140.285 26.1758 140.109 27.3398 139.758 28.3711C139.406 29.4023 138.91 30.2812 138.27 31.0078C137.629 31.7266 136.863 32.2773 135.973 32.6602C135.09 33.043 134.109 33.2344 133.031 33.2344C131.961 33.2344 130.98 33.043 130.09 32.6602C129.207 32.2773 128.441 31.7266 127.793 31.0078C127.145 30.2812 126.641 29.4023 126.281 28.3711C125.93 27.3398 125.754 26.1758 125.754 24.8789V24.0703C125.754 22.7656 125.93 21.6016 126.281 20.5781C126.633 19.5469 127.129 18.668 127.77 17.9414C128.418 17.2148 129.184 16.6602 130.066 16.2773C130.957 15.8945 131.938 15.7031 133.008 15.7031C134.086 15.7031 135.066 15.8945 135.949 16.2773C136.84 16.6602 137.605 17.2148 138.246 17.9414C138.895 18.668 139.395 19.5469 139.746 20.5781C140.105 21.6016 140.285 22.7656 140.285 24.0703ZM136.734 24.8789V24.0469C136.734 23.1406 136.652 22.3438 136.488 21.6562C136.324 20.9688 136.082 20.3906 135.762 19.9219C135.441 19.4531 135.051 19.1016 134.59 18.8672C134.129 18.625 133.602 18.5039 133.008 18.5039C132.414 18.5039 131.887 18.625 131.426 18.8672C130.973 19.1016 130.586 19.4531 130.266 19.9219C129.953 20.3906 129.715 20.9688 129.551 21.6562C129.387 22.3438 129.305 23.1406 129.305 24.0469V24.8789C129.305 25.7773 129.387 26.5742 129.551 27.2695C129.715 27.957 129.957 28.5391 130.277 29.0156C130.598 29.4844 130.988 29.8398 131.449 30.082C131.91 30.3242 132.438 30.4453 133.031 30.4453C133.625 30.4453 134.152 30.3242 134.613 30.082C135.074 29.8398 135.461 29.4844 135.773 29.0156C136.086 28.5391 136.324 27.957 136.488 27.2695C136.652 26.5742 136.734 25.7773 136.734 24.8789ZM145.91 23.0273V33H142.535V20.3203H145.699L145.91 23.0273ZM145.418 26.2148H144.504C144.504 25.2773 144.625 24.4336 144.867 23.6836C145.109 22.9258 145.449 22.2812 145.887 21.75C146.324 21.2109 146.844 20.8008 147.445 20.5195C148.055 20.2305 148.734 20.0859 149.484 20.0859C150.078 20.0859 150.621 20.1719 151.113 20.3438C151.605 20.5156 152.027 20.7891 152.379 21.1641C152.738 21.5391 153.012 22.0352 153.199 22.6523C153.395 23.2695 153.492 24.0234 153.492 24.9141V33H150.094V24.9023C150.094 24.3398 150.016 23.9023 149.859 23.5898C149.703 23.2773 149.473 23.0586 149.168 22.9336C148.871 22.8008 148.504 22.7344 148.066 22.7344C147.613 22.7344 147.219 22.8242 146.883 23.0039C146.555 23.1836 146.281 23.4336 146.062 23.7539C145.852 24.0664 145.691 24.4336 145.582 24.8555C145.473 25.2773 145.418 25.7305 145.418 26.2148Z" fill="black"/>
</svg>
