<svg width="30" height="30" viewBox="0 0 30 30" fill="none" xmlns="http://www.w3.org/2000/svg">
<path d="M19.9805 13.3301V9.11133L17.7539 11.3379V13.3301C17.751 14.8154 16.5234 16.0283 15 16.0254C14.4404 16.0283 13.9219 15.8672 13.4766 15.5859L11.8945 17.1973C12.7471 17.8535 13.8252 18.252 15 18.252C17.748 18.252 19.9805 16.0518 19.9805 13.3301Z" fill="currentColor"/>
<path d="M24.4043 13.0664H22.6465C22.5176 13.0664 22.4121 13.1719 22.4121 13.3008C22.4121 17.4111 19.0811 20.7422 14.9707 20.7422C13.125 20.7422 11.4346 20.0684 10.1367 18.9551L8.55469 20.5371C9.9873 21.8027 11.8008 22.6553 13.7988 22.9102V25.8984H9.55078C9.14355 25.8984 8.82129 26.3174 8.81836 26.8359V27.8906C8.82129 28.0195 8.90332 28.125 8.99414 28.125H20.9473C21.041 28.125 21.123 28.0195 21.123 27.8906V26.8359C21.123 26.3174 20.8008 25.8984 20.3906 25.8984H16.0254V22.9102C20.8682 22.3857 24.6387 18.2842 24.6387 13.3008C24.6387 13.1719 24.5332 13.0664 24.4043 13.0664ZM24.7881 2.00098L23.5137 0.773438C23.4229 0.685548 23.2764 0.685548 23.1855 0.776368L19.4062 4.55566C18.583 2.96484 16.9043 1.875 14.9707 1.875C12.2197 1.875 9.99023 4.08106 9.99023 6.79688V13.3594C9.99023 13.5557 10.002 13.749 10.0254 13.9395L8.0332 15.9316C7.72559 15.1143 7.55566 14.2266 7.55859 13.3008C7.55273 13.1719 7.44727 13.0664 7.32422 13.0664H5.56641C5.4375 13.0664 5.33203 13.1719 5.33203 13.3008C5.33203 14.8535 5.69824 16.3184 6.3457 17.6191L2.33203 21.6328C2.24121 21.7236 2.24121 21.873 2.33203 21.9639L3.58301 23.2148C3.67383 23.3057 3.82324 23.3057 3.91406 23.2148L24.791 2.33789L24.7939 2.33496C24.8848 2.24121 24.8818 2.0918 24.7881 2.00098ZM12.2168 11.748V6.79688C12.2168 5.31445 13.4443 4.10156 14.9707 4.10156C16.3184 4.10156 17.4346 5.04785 17.6748 6.29004L12.2168 11.748Z" fill="currentColor"/>
</svg>
