<svg width="18" height="19" viewBox="0 0 18 19" fill="none" xmlns="http://www.w3.org/2000/svg">
<path d="M11.2809 10.093L4.9059 3.71799C4.7634 3.57549 4.5684 3.50049 4.3734 3.50049C4.1784 3.50049 3.9909 3.57549 3.8484 3.71799L1.7184 5.84799C1.4259 6.14049 1.4259 6.62049 1.7184 6.91299L8.0934 13.288C8.2434 13.438 8.4309 13.5055 8.6259 13.5055C8.8209 13.5055 9.0084 13.4305 9.1584 13.288L11.2809 11.1655C11.5734 10.8655 11.5734 10.3855 11.2809 10.093ZM8.6259 11.6905L3.3084 6.37299L4.3734 5.30799L9.6909 10.6255L8.6259 11.6905Z" fill="currentColor"/>
<path d="M11.8175 12.757L10.7568 13.8176L13.9388 16.9996L14.9994 15.9389L11.8175 12.757Z" fill="currentColor"/>
<path d="M13.8759 2.00049C12.4284 2.00049 11.2509 3.17799 11.2509 4.62549C11.2509 6.07299 12.4284 7.25049 13.8759 7.25049C15.3234 7.25049 16.5009 6.07299 16.5009 4.62549C16.5009 3.17799 15.3234 2.00049 13.8759 2.00049ZM13.8759 5.75049C13.2534 5.75049 12.7509 5.24799 12.7509 4.62549C12.7509 4.00299 13.2534 3.50049 13.8759 3.50049C14.4984 3.50049 15.0009 4.00299 15.0009 4.62549C15.0009 5.24799 14.4984 5.75049 13.8759 5.75049Z" fill="currentColor"/>
</svg>
