<svg width="30" height="28" viewBox="0 0 30 28" fill="none" xmlns="http://www.w3.org/2000/svg">
<g clip-path="url(#clip0_16_1293)">
<path fill-rule="evenodd" clip-rule="evenodd" d="M27.3913 6.52174H23.2565L20.8696 3.91304H11.7391V6.52174H19.7217L22.1087 9.13043H27.3913V24.7826H6.52174V11.7391H3.91304V24.7826C3.91304 26.2174 5.08696 27.3913 6.52174 27.3913H27.3913C28.8261 27.3913 30 26.2174 30 24.7826V9.13043C30 7.69565 28.8261 6.52174 27.3913 6.52174ZM10.4348 16.9565C10.4348 20.5565 13.3565 23.4783 16.9565 23.4783C20.5565 23.4783 23.4783 20.5565 23.4783 16.9565C23.4783 13.3565 20.5565 10.4348 16.9565 10.4348C13.3565 10.4348 10.4348 13.3565 10.4348 16.9565ZM16.9565 13.0435C19.1087 13.0435 20.8696 14.8043 20.8696 16.9565C20.8696 19.1087 19.1087 20.8696 16.9565 20.8696C14.8043 20.8696 13.0435 19.1087 13.0435 16.9565C13.0435 14.8043 14.8043 13.0435 16.9565 13.0435ZM6.52174 10.4348V6.52174H10.4348V3.91304H6.52174V0H3.91304V3.91304H0V6.52174H3.91304V10.4348H6.52174Z" fill="currentColor"/>
</g>
<defs>
<clipPath id="clip0_16_1293">
<rect width="30" height="27.3913" fill="white"/>
</clipPath>
</defs>
</svg>
