<svg width="30" height="30" viewBox="0 0 30 30" fill="none" xmlns="http://www.w3.org/2000/svg">
<path d="M15.95 24.925C14.6502 26.1436 12.9273 26.8089 11.1458 26.7802C9.36426 26.7515 7.66374 26.031 6.40385 24.7711C5.14396 23.5113 4.42347 21.8107 4.39476 20.0292C4.36605 18.2477 5.03136 16.5248 6.24999 15.225L17.2 4.2875C17.8509 3.64168 18.6783 3.20273 19.5781 3.02585C20.4778 2.84897 21.4098 2.94206 22.2567 3.29341C23.1037 3.64477 23.8279 4.23869 24.3383 5.00051C24.8486 5.76233 25.1223 6.65804 25.125 7.575C25.1243 8.18478 25.0024 8.78833 24.7663 9.35057C24.5303 9.9128 24.1848 10.4225 23.75 10.85L13.3375 21.25C13.0119 21.5095 12.6025 21.6405 12.1868 21.6182C11.7711 21.5959 11.378 21.4218 11.0821 21.129C10.7862 20.8362 10.608 20.4449 10.5814 20.0295C10.5547 19.614 10.6814 19.2032 10.9375 18.875L21.3625 8.45L19.5875 6.6875L9.16249 17.1125C8.41015 17.9069 7.99752 18.9636 8.0124 20.0576C8.02728 21.1516 8.4685 22.1967 9.24216 22.9703C10.0158 23.744 11.0609 24.1852 12.1549 24.2001C13.2489 24.215 14.3056 23.8023 15.1 23.05L25.5375 12.625C26.8802 11.284 27.6351 9.46455 27.6363 7.56692C27.6375 5.66929 26.8847 3.84891 25.5437 2.50625C24.2027 1.16359 22.3833 0.408637 20.4857 0.407464C18.588 0.406292 16.7677 1.159 15.425 2.5L4.47499 13.4625C2.78159 15.2305 1.84807 17.5915 1.87445 20.0395C1.90082 22.4875 2.88501 24.8278 4.61612 26.5589C6.34722 28.29 8.68751 29.2742 11.1355 29.3005C13.5835 29.3269 15.9445 28.3934 17.7125 26.7L27.6125 16.7875L25.85 15L15.95 24.925Z" fill="currentColor"/>
</svg>
