<svg width="30" height="30" viewBox="0 0 30 30" fill="none" xmlns="http://www.w3.org/2000/svg">
<g clip-path="url(#clip0_10_379)">
<path d="M17.0068 0.98877C17.0068 0.444336 17.5439 0 18.2129 0C18.8818 0 19.4189 0.441895 19.4189 0.98877V5.31494C19.4189 5.85938 18.8818 6.30371 18.2129 6.30371C17.5439 6.30371 17.0068 5.86182 17.0068 5.31494V0.98877ZM22.3071 13.9233C23.3472 13.9233 24.3408 14.1309 25.249 14.5068C26.1938 14.8975 27.041 15.4688 27.749 16.1768C28.457 16.8848 29.0283 17.7344 29.4189 18.6743C29.7949 19.5825 30.0024 20.5762 30.0024 21.6162C30.0024 22.6562 29.7949 23.6499 29.4189 24.5581C29.0283 25.5029 28.457 26.3501 27.749 27.0581C27.041 27.7661 26.1914 28.3374 25.2515 28.728C24.3433 29.104 23.3496 29.3115 22.3096 29.3115C21.2695 29.3115 20.2759 29.104 19.3677 28.728C18.4229 28.3374 17.5757 27.7661 16.8677 27.0581C16.1597 26.3501 15.5884 25.5005 15.1978 24.5581C14.8218 23.6499 14.6143 22.6562 14.6143 21.6162C14.6143 20.5762 14.8218 19.5825 15.1978 18.6743C15.5884 17.7295 16.1597 16.8823 16.8677 16.1743C17.5757 15.4663 18.4253 14.895 19.3652 14.5044C20.2734 14.1309 21.2646 13.9233 22.3071 13.9233ZM21.731 18.4009C21.731 18.2153 21.8066 18.0469 21.9287 17.9248C22.0508 17.8027 22.2192 17.7271 22.4072 17.7271C22.5952 17.7271 22.7637 17.8027 22.8857 17.9248C23.0078 18.0469 23.0835 18.2153 23.0835 18.4033V22.002L25.7739 23.5986L25.7959 23.6133C25.9448 23.7085 26.0425 23.8525 26.0815 24.0112C26.123 24.1772 26.1035 24.3579 26.0132 24.5142L26.0083 24.5215C26.0034 24.5312 25.9985 24.5386 25.9912 24.5459C25.896 24.6924 25.752 24.79 25.5957 24.8291C25.4297 24.8706 25.249 24.8511 25.0928 24.7607L22.085 22.981C21.98 22.9248 21.8921 22.8394 21.8286 22.7393C21.7651 22.6367 21.7285 22.5171 21.7285 22.3901L21.731 18.4009ZM26.7944 17.1289C26.2085 16.543 25.5103 16.0718 24.7363 15.752C23.9893 15.4419 23.1689 15.2734 22.3071 15.2734C21.4453 15.2734 20.625 15.4443 19.8779 15.752C19.104 16.0718 18.4058 16.543 17.8198 17.1289C17.2339 17.7148 16.7627 18.4131 16.4429 19.187C16.1328 19.9341 15.9644 20.7544 15.9644 21.6162C15.9644 22.478 16.1353 23.2983 16.4429 24.0454C16.7627 24.8193 17.2339 25.5176 17.8198 26.1035C18.4058 26.6895 19.104 27.1606 19.8779 27.4805C20.625 27.7905 21.4453 27.959 22.3071 27.959C23.1689 27.959 23.9893 27.7881 24.7363 27.4805C25.5103 27.1606 26.2085 26.6895 26.7944 26.1035C27.9443 24.9536 28.6523 23.3691 28.6523 21.6162C28.6523 20.7544 28.4814 19.9341 28.1738 19.187C27.8516 18.4131 27.3804 17.7148 26.7944 17.1289ZM3.28369 14.0039C3.21533 14.0039 3.1543 13.7036 3.1543 13.335C3.1543 12.9663 3.20801 12.6685 3.28369 12.6685H6.57471C6.64307 12.6685 6.7041 12.9688 6.7041 13.335C6.7041 13.7036 6.65039 14.0039 6.57471 14.0039H3.28369ZM8.53027 14.0039C8.46191 14.0039 8.40088 13.7036 8.40088 13.335C8.40088 12.9663 8.45459 12.6685 8.53027 12.6685H11.8213C11.8896 12.6685 11.9507 12.9688 11.9507 13.335C11.9507 13.7036 11.897 14.0039 11.8213 14.0039H8.53027ZM13.7769 14.0039C13.7085 14.0039 13.6475 13.7036 13.6475 13.335C13.6475 12.9663 13.7012 12.6685 13.7769 12.6685H17.0679C17.1362 12.6685 17.1973 12.9663 17.1973 13.3325C16.8677 13.5376 16.5503 13.7622 16.2476 14.0039H13.7769ZM3.29102 17.832C3.22266 17.832 3.16162 17.5317 3.16162 17.1631C3.16162 16.7944 3.21533 16.4941 3.29102 16.4941H6.58203C6.65039 16.4941 6.71143 16.7944 6.71143 17.1631C6.71143 17.5317 6.65771 17.832 6.58203 17.832H3.29102ZM8.5376 17.832C8.46924 17.832 8.4082 17.5317 8.4082 17.1631C8.4082 16.7944 8.46191 16.4941 8.5376 16.4941H11.8286C11.897 16.4941 11.958 16.7944 11.958 17.1631C11.958 17.5317 11.9043 17.832 11.8286 17.832H8.5376ZM3.29834 21.6626C3.22998 21.6626 3.16895 21.3623 3.16895 20.9937C3.16895 20.625 3.22266 20.3247 3.29834 20.3247H6.58936C6.65771 20.3247 6.71875 20.625 6.71875 20.9937C6.71875 21.3623 6.66504 21.6626 6.58936 21.6626H3.29834ZM8.54492 21.6626C8.47656 21.6626 8.41553 21.3623 8.41553 20.9937C8.41553 20.625 8.46924 20.3247 8.54492 20.3247H11.8359C11.9043 20.3247 11.9653 20.625 11.9653 20.9937C11.9653 21.3623 11.9116 21.6626 11.8359 21.6626H8.54492ZM6.17432 0.98877C6.17432 0.444336 6.71143 0 7.38037 0C8.04932 0 8.58643 0.441895 8.58643 0.98877V5.31494C8.58643 5.85938 8.04688 6.30371 7.38037 6.30371C6.71143 6.30371 6.17432 5.86182 6.17432 5.31494V0.98877ZM1.32812 9.45801H24.2969V4.47754C24.2969 4.30664 24.2285 4.15771 24.1187 4.04785C24.0088 3.93799 23.8525 3.86963 23.689 3.86963H21.4868C21.1182 3.86963 20.8179 3.56934 20.8179 3.20068C20.8179 2.83203 21.1182 2.53174 21.4868 2.53174H23.689C24.2285 2.53174 24.7119 2.74902 25.0659 3.10303C25.4199 3.45703 25.6372 3.94043 25.6372 4.47998V12.3877C25.1978 12.2363 24.7461 12.1143 24.2822 12.0239V10.7886H24.2969H1.32812V23.6865C1.32812 23.8574 1.39648 24.0063 1.50635 24.1162C1.61621 24.2261 1.77246 24.2944 1.93604 24.2944H12.8516C12.9761 24.7583 13.1323 25.21 13.3203 25.6445H1.94824C1.41113 25.6445 0.925293 25.4272 0.571289 25.0732C0.217285 24.7217 0 24.2383 0 23.6987V4.48242C0 3.94531 0.217285 3.45947 0.571289 3.10547C0.925293 2.75146 1.40869 2.53418 1.94824 2.53418H4.29932C4.66797 2.53418 4.96826 2.83447 4.96826 3.20312C4.96826 3.57178 4.66797 3.87207 4.29932 3.87207H1.94824C1.77734 3.87207 1.62842 3.94043 1.51855 4.05029C1.40869 4.16016 1.34033 4.31641 1.34033 4.47998V9.46045H1.32812V9.45801ZM10.5151 3.86963C10.1465 3.86963 9.84619 3.56934 9.84619 3.20068C9.84619 2.83203 10.1465 2.53174 10.5151 2.53174H14.9976C15.3662 2.53174 15.6665 2.83203 15.6665 3.20068C15.6665 3.56934 15.3662 3.86963 14.9976 3.86963H10.5151Z" fill="currentColor"/>
</g>
<defs>
<clipPath id="clip0_10_379">
<rect width="30" height="29.3115" fill="white"/>
</clipPath>
</defs>
</svg>
