<svg width="30" height="30" viewBox="0 0 30 30" fill="none" xmlns="http://www.w3.org/2000/svg">
<path d="M16.5 17.625C16.125 18 15.75 18.5625 15.4687 19.0312C13.7812 17.7187 12.2812 16.125 10.9687 14.5312C11.5312 14.25 12 13.875 12.375 13.5C14.25 11.625 13.5937 9.18749 11.7187 7.31249C9.84373 5.43749 7.49998 4.68749 5.53123 6.65624C3.56248 8.62499 3.37497 12 4.87497 14.1562C7.59372 18.2812 11.7187 22.4062 15.8437 25.125C18.0937 26.625 21.4687 26.3437 23.3437 24.4687C25.2187 22.5937 24.5625 20.1562 22.6875 18.2812C20.8125 16.4062 18.375 15.6562 16.5 17.625Z" stroke="currentColor" stroke-width="2" stroke-miterlimit="10" stroke-linejoin="round"/>
<path d="M26.1563 13.0313C26.1563 7.875 22.0313 3.75 16.875 3.75" stroke="currentColor" stroke-width="2" stroke-miterlimit="10" stroke-linecap="round" stroke-linejoin="round"/>
<path d="M21.5625 12.8438C21.5625 10.4063 19.5 8.4375 16.9688 8.4375" stroke="currentColor" stroke-width="2" stroke-miterlimit="10" stroke-linecap="round" stroke-linejoin="round"/>
</svg>
