<svg width="30" height="30" viewBox="0 0 30 30" fill="none" xmlns="http://www.w3.org/2000/svg">
<path fill-rule="evenodd" clip-rule="evenodd" d="M5.63748 19.35L8.13748 17.3625C8.73748 16.8875 9.08748 16.1625 9.08748 15.4V12.15C12.8625 10.925 16.95 10.9125 20.7375 12.15V15.4125C20.7375 16.175 21.0875 16.9 21.6875 17.375L24.175 19.35C25.175 20.1375 26.6 20.0625 27.5 19.1625L29.025 17.6375C30.025 16.6375 30.025 14.975 28.9625 14.0375C20.95 6.96251 8.87498 6.96251 0.862482 14.0375C-0.200018 14.975 -0.200018 16.6375 0.799982 17.6375L2.32498 19.1625C3.21248 20.0625 4.63748 20.1375 5.63748 19.35Z" fill="currentColor"/>
</svg>
