<svg width="30" height="30" viewBox="0 0 30 30" fill="none" xmlns="http://www.w3.org/2000/svg">
<path d="M14.9986 29.7713C23.1667 29.7713 29.7882 23.1497 29.7882 14.9816C29.7882 6.81354 23.1667 0.191994 14.9986 0.191994C6.83047 0.191994 0.208923 6.81354 0.208923 14.9816C0.208923 23.1497 6.83047 29.7713 14.9986 29.7713Z" fill="url(#paint0_linear_12_979)"/>
<path d="M20.2341 10.9797C20.8686 10.9797 21.383 10.4653 21.383 9.83075C21.383 9.1962 20.8686 8.68179 20.2341 8.68179C19.5995 8.68179 19.0851 9.1962 19.0851 9.83075C19.0851 10.4653 19.5995 10.9797 20.2341 10.9797Z" fill="white"/>
<path d="M15.1261 10.1552C12.4648 10.1552 10.2996 12.3204 10.2996 14.9816C10.2996 17.6429 12.4648 19.8081 15.1261 19.8081C17.7873 19.8081 19.9524 17.6429 19.9524 14.9816C19.9524 12.3204 17.7873 10.1552 15.1261 10.1552ZM15.1261 18.0733C13.4213 18.0733 12.0343 16.6864 12.0343 14.9816C12.0343 13.2769 13.4213 11.89 15.1261 11.89C16.8308 11.89 18.2176 13.2769 18.2176 14.9816C18.2176 16.6864 16.8308 18.0733 15.1261 18.0733Z" fill="white"/>
<path d="M18.9576 24.7807H11.1332C7.88722 24.7807 5.24652 22.14 5.24652 18.894V11.0693C5.24652 7.82323 7.88721 5.18257 11.1332 5.18257H18.9576C22.2036 5.18257 24.8447 7.82323 24.8447 11.0693V18.894C24.8447 22.14 22.2036 24.7807 18.9576 24.7807ZM11.1332 7.02632C8.90378 7.02632 7.09027 8.83984 7.09027 11.0693V18.894C7.09027 21.1235 8.90378 22.937 11.1332 22.937H18.9576C21.1871 22.937 23.0009 21.1235 23.0009 18.894V11.0693C23.0009 8.83984 21.1871 7.02632 18.9576 7.02632H11.1332Z" fill="white"/>
<defs>
<linearGradient id="paint0_linear_12_979" x1="2.38701" y1="27.5932" x2="34.3489" y2="-4.3687" gradientUnits="userSpaceOnUse">
<stop offset="0.0011" stop-color="#FBE18A"/>
<stop offset="0.2094" stop-color="#FCBB45"/>
<stop offset="0.3765" stop-color="#F75274"/>
<stop offset="0.5238" stop-color="#D53692"/>
<stop offset="0.7394" stop-color="#8F39CE"/>
<stop offset="1" stop-color="#5B4FE9"/>
</linearGradient>
</defs>
</svg>
