<svg width="30" height="30" viewBox="0 0 30 30" fill="none" xmlns="http://www.w3.org/2000/svg">
<path d="M16.875 26.25C19.1 26.25 21.2751 25.5902 23.1252 24.354C24.9752 23.1179 26.4172 21.3609 27.2686 19.3052C28.1201 17.2495 28.3429 14.9875 27.9088 12.8052C27.4748 10.6229 26.4033 8.61839 24.83 7.04505C23.2566 5.47171 21.2521 4.40025 19.0698 3.96616C16.8875 3.53208 14.6255 3.75487 12.5698 4.60635C10.5141 5.45784 8.75713 6.89978 7.52097 8.74983C6.2848 10.5999 5.625 12.775 5.625 15V20.8125L2.25 17.4375L0.9375 18.75L6.5625 24.375L12.1875 18.75L10.875 17.4375L7.5 20.8125V15C7.5 13.1458 8.04983 11.3332 9.07997 9.79153C10.1101 8.24982 11.5743 7.0482 13.2873 6.33863C15.0004 5.62906 16.8854 5.4434 18.704 5.80514C20.5225 6.16687 22.193 7.05975 23.5041 8.37087C24.8152 9.68199 25.7081 11.3525 26.0699 13.171C26.4316 14.9896 26.2459 16.8746 25.5364 18.5877C24.8268 20.3007 23.6252 21.7649 22.0835 22.795C20.5418 23.8252 18.7292 24.375 16.875 24.375V26.25Z" fill="currentColor"/>
</svg>
