<svg width="30" height="30" viewBox="0 0 30 30" fill="none" xmlns="http://www.w3.org/2000/svg">
<g clip-path="url(#clip0_10_1422)">
<path fill-rule="evenodd" clip-rule="evenodd" d="M8.08502 20.0025H9.97408C11.2885 12.5466 17.7825 6.8775 25.6153 6.8775C25.9435 6.8775 26.2556 6.88031 26.5706 6.88312L23.1356 10.3172C22.7691 10.6837 22.7691 11.2762 23.1356 11.6428C23.3185 11.8256 23.5585 11.9175 23.7985 11.9175C24.0385 11.9175 24.2785 11.8256 24.4613 11.6428L30 5.95875L24.4622 0.274685C24.0956 -0.0918771 23.5031 -0.0918771 23.1366 0.274685C22.77 0.641248 22.77 1.23375 23.1366 1.60031L26.5406 5.00437C26.2425 5.00344 25.9594 5.00156 25.6547 5.00156C16.7766 5.0025 9.4369 11.5041 8.08502 20.0025Z" fill="currentColor"/>
<path fill-rule="evenodd" clip-rule="evenodd" d="M27.1875 14.0625C26.67 14.0625 26.25 14.4825 26.25 15V28.125H1.875V9.375H10.3125C10.83 9.375 11.25 8.955 11.25 8.4375C11.25 7.92 10.83 7.5 10.3125 7.5H10.2844H1.875C0.84 7.5 0 8.34 0 9.375V28.125C0 29.16 0.84 30 1.875 30H26.25C27.285 30 28.125 29.16 28.125 28.125V15C28.125 14.4825 27.705 14.0625 27.1875 14.0625Z" fill="currentColor"/>
</g>
<defs>
<clipPath id="clip0_10_1422">
<rect width="30" height="30" fill="white"/>
</clipPath>
</defs>
</svg>
