<svg width="30" height="30" viewBox="0 0 30 30" fill="none" xmlns="http://www.w3.org/2000/svg">
<path d="M3.51461 2.37822C3.20079 2.0644 2.69201 2.0644 2.37818 2.37821C2.06437 2.69202 2.06436 3.20081 2.37818 3.51463L4.84424 5.98073C3.29701 6.33514 2.14282 7.72029 2.14282 9.375V20.625C2.14282 22.5481 3.70183 24.1071 5.62497 24.1071H16.8774C18.5313 24.1071 19.9159 22.9541 20.2712 21.4079L26.485 27.622C26.7989 27.9358 27.3077 27.9358 27.6215 27.622C27.9353 27.3081 27.9353 26.7993 27.6215 26.4855L3.51461 2.37822ZM18.7524 19.8891V20.625C18.7524 21.6605 17.9129 22.5 16.8774 22.5H5.62497C4.58943 22.5 3.74997 21.6605 3.74997 20.625V9.375C3.74997 8.33947 4.58943 7.5 5.62497 7.5H6.36349L18.7524 19.8891Z" fill="currentColor"/>
<path d="M9.302 5.89285L10.9091 7.5H16.8775C17.913 7.5 18.7525 8.33946 18.7525 9.375V15.3434L20.3596 16.9506V13.013L25.7166 9.34953V20.6534L20.4673 17.0584L25.9102 22.5013C26.6319 22.5399 27.3237 21.977 27.3237 21.1616V8.84184C27.3237 7.76497 26.1173 7.12846 25.2283 7.73634L20.3596 11.066V9.375C20.3596 7.45187 18.8006 5.89285 16.8775 5.89285H9.302Z" fill="currentColor"/>
</svg>
