<svg width="50" height="50" viewBox="0 0 50 50" fill="none" xmlns="http://www.w3.org/2000/svg">
<g clip-path="url(#clip0_140_9810)">
<path d="M50 0H0V50H50V0Z" fill="#715AFA"/>
<path d="M18.2353 4.70587H4.11768V5.88234H18.2353V4.70587Z" fill="white"/>
<path d="M18.2353 4.70587H4.11768V5.29411H18.2353V4.70587Z" fill="#E8E8E8"/>
<path d="M19.4118 2.94116H2.94116V4.70587H19.4118V2.94116Z" fill="white"/>
<path d="M17.647 5.88235H4.70581V7.64706H17.647V5.88235Z" fill="white"/>
<path d="M18.8235 5.88235H4.70581V6.47059H18.8235V5.88235Z" fill="#E8E8E8"/>
<path d="M14.7058 7.64706H7.64697V25.8824H14.7058V7.64706Z" fill="white"/>
<path d="M9.99996 7.64706H8.82349V25.2941H9.99996V7.64706Z" fill="#E8E8E8"/>
<path d="M11.7646 7.64706H10.5881V25.2941H11.7646V7.64706Z" fill="#E8E8E8"/>
<path d="M13.5295 7.64706H12.353V25.2941H13.5295V7.64706Z" fill="#E8E8E8"/>
<path d="M14.7058 7.64706H7.64697V8.2353H14.7058V7.64706Z" fill="#E8E8E8"/>
<path d="M15.2941 25.2941H7.05884V42.9412H15.2941V25.2941Z" fill="white"/>
<path d="M9.41182 26.4706H8.23535V42.3529H9.41182V26.4706Z" fill="#E8E8E8"/>
<path d="M11.7646 26.4706H10.5881V42.3529H11.7646V26.4706Z" fill="#E8E8E8"/>
<path d="M14.1176 26.4706H12.9412V42.3529H14.1176V26.4706Z" fill="#E8E8E8"/>
<path d="M18.2353 44.7059H4.11768V45.8823H18.2353V44.7059Z" fill="white"/>
<path d="M18.2353 45.2941H4.11768V45.8824H18.2353V45.2941Z" fill="#E8E8E8"/>
<path d="M19.4118 45.8824H2.94116V47.0588H19.4118V45.8824Z" fill="white"/>
<path d="M19.4118 46.4706H2.94116V47.0588H19.4118V46.4706Z" fill="#E8E8E8"/>
<path d="M17.647 42.9412H4.70581V44.7059H17.647V42.9412Z" fill="white"/>
<path d="M17.647 44.1176H4.70581V44.7059H17.647V44.1176Z" fill="#E8E8E8"/>
<path d="M45.8823 4.70587H31.7646V5.88234H45.8823V4.70587Z" fill="white"/>
<path d="M45.8823 4.70587H31.7646V5.29411H45.8823V4.70587Z" fill="#E8E8E8"/>
<path d="M47.0587 2.94116H30.5881V4.70587H47.0587V2.94116Z" fill="white"/>
<path d="M45.2942 5.88235H32.353V7.64706H45.2942V5.88235Z" fill="white"/>
<path d="M46.4707 5.88235H32.353V6.47059H46.4707V5.88235Z" fill="#E8E8E8"/>
<path d="M42.353 7.64706H35.2942V25.8824H42.353V7.64706Z" fill="white"/>
<path d="M37.6472 7.64706H36.4707V25.2941H37.6472V7.64706Z" fill="#E8E8E8"/>
<path d="M39.4118 7.64706H38.2354V25.2941H39.4118V7.64706Z" fill="#E8E8E8"/>
<path d="M41.1765 7.64706H40V25.2941H41.1765V7.64706Z" fill="#E8E8E8"/>
<path d="M42.353 7.64706H35.2942V8.2353H42.353V7.64706Z" fill="#E8E8E8"/>
<path d="M42.9411 25.2941H34.7058V42.9412H42.9411V25.2941Z" fill="white"/>
<path d="M37.0588 26.4706H35.8823V42.3529H37.0588V26.4706Z" fill="#E8E8E8"/>
<path d="M39.4118 26.4706H38.2354V42.3529H39.4118V26.4706Z" fill="#E8E8E8"/>
<path d="M41.7646 26.4706H40.5881V42.3529H41.7646V26.4706Z" fill="#E8E8E8"/>
<path d="M45.8823 44.7059H31.7646V45.8823H45.8823V44.7059Z" fill="white"/>
<path d="M45.8823 45.2941H31.7646V45.8824H45.8823V45.2941Z" fill="#E8E8E8"/>
<path d="M47.0587 45.8824H30.5881V47.0588H47.0587V45.8824Z" fill="white"/>
<path d="M47.0587 46.4706H30.5881V47.0588H47.0587V46.4706Z" fill="#E8E8E8"/>
<path d="M45.2942 42.9412H32.353V44.7059H45.2942V42.9412Z" fill="white"/>
<path d="M45.2942 44.1176H32.353V44.7059H45.2942V44.1176Z" fill="#E8E8E8"/>
</g>
<defs>
<clipPath id="clip0_140_9810">
<rect width="50" height="50" fill="white"/>
</clipPath>
</defs>
</svg>
